<?xml version="1.0" standalone="no"?>
<!DOCTYPE svg PUBLIC "-//W3C//DTD SVG 20010904//EN"
 "http://www.w3.org/TR/2001/REC-SVG-20010904/DTD/svg10.dtd">
<svg version="1.0" xmlns="http://www.w3.org/2000/svg"
 width="512.000000pt" height="512.000000pt" viewBox="0 0 512.000000 512.000000"
 preserveAspectRatio="xMidYMid meet">

<g transform="translate(0.000000,512.000000) scale(0.100000,-0.100000)"
fill="#000000" stroke="none">
<path d="M756 5099 l-26 -20 0 -429 0 -429 26 -20 c33 -26 65 -27 95 -2 l24
19 3 376 3 376 1274 0 1275 0 0 -305 0 -305 -209 0 -210 0 -20 -26 c-26 -33
-27 -65 -2 -95 19 -24 22 -24 232 -27 209 -3 213 -4 242 -28 l29 -24 374 0
374 0 2 -771 3 -771 24 -19 c30 -25 62 -24 95 2 l26 20 0 827 0 827 -423 422
-422 423 -1381 0 -1381 0 -27 -21z m3112 -787 c-145 -1 -268 0 -275 3 -10 3
-13 66 -13 277 l0 273 275 -275 275 -275 -262 -3z"/>
<path d="M1711 4714 c-261 -44 -318 -57 -335 -74 -20 -19 -21 -33 -24 -250
l-3 -230 -27 0 c-42 0 -114 -41 -139 -79 -77 -116 5 -271 144 -271 53 0 118
35 145 78 22 36 23 46 28 337 l5 300 210 37 c116 20 218 37 228 37 15 1 17
-13 17 -163 l0 -163 -45 -5 c-153 -18 -209 -202 -92 -305 86 -76 220 -45 268
61 17 37 19 70 19 363 0 177 -3 329 -6 338 -6 15 -55 46 -71 44 -4 -1 -149
-25 -322 -55z"/>
<path d="M2783 4662 c-49 -7 -53 -29 -53 -273 l0 -226 -44 -5 c-100 -12 -161
-86 -154 -188 5 -68 33 -112 91 -141 82 -42 190 -8 235 74 15 28 17 70 20 368
3 324 2 336 -17 361 -22 28 -43 36 -78 30z"/>
<path d="M2201 4334 c-24 -30 -26 -43 -10 -77 18 -40 49 -47 218 -47 145 0
161 2 185 21 33 26 36 79 6 109 -19 19 -33 20 -199 20 l-180 0 -20 -26z"/>
<path d="M756 3959 l-26 -20 0 -1949 0 -1949 26 -20 27 -21 1777 0 1777 0 27
21 26 20 0 1149 0 1149 -26 20 c-33 26 -65 27 -95 2 l-24 -19 -3 -1096 -2
-1096 -1680 0 -1680 0 0 1880 c0 1631 -2 1885 -15 1909 -23 46 -66 54 -109 20z"/>
<path d="M2222 3950 c-22 -9 -42 -46 -42 -76 0 -8 11 -26 25 -39 22 -23 32
-25 113 -25 104 0 132 16 132 75 0 55 -35 75 -129 74 -42 0 -86 -4 -99 -9z"/>
<path d="M2995 3935 c-30 -30 -32 -64 -4 -99 l20 -26 435 0 435 0 24 25 c14
13 25 31 25 40 0 29 -29 72 -52 79 -13 3 -211 6 -441 6 l-418 0 -24 -25z"/>
<path d="M1171 3524 c-27 -35 -26 -57 3 -91 23 -27 28 -28 116 -28 84 0 93 2
111 24 25 30 24 76 -1 101 -17 17 -33 20 -114 20 -90 0 -96 -1 -115 -26z"/>
<path d="M1537 3532 c-15 -16 -17 -49 -17 -250 l0 -232 -32 0 c-76 0 -157 -69
-173 -147 -9 -44 11 -107 46 -148 78 -89 231 -67 285 42 18 35 19 65 19 374 0
317 -1 338 -19 358 -25 27 -86 29 -109 3z"/>
<path d="M1770 3530 c-25 -25 -26 -71 -1 -101 17 -21 28 -24 125 -27 126 -5
169 2 196 30 26 28 25 58 -1 92 -20 26 -21 26 -160 26 -126 0 -141 -2 -159
-20z"/>
<path d="M2535 3499 c-267 -45 -292 -51 -312 -75 -22 -24 -23 -31 -23 -250 l0
-224 -27 0 c-40 -1 -106 -33 -131 -64 -93 -119 -14 -286 134 -286 61 0 120 32
148 80 20 33 21 55 26 334 l5 300 185 31 c102 18 204 35 228 38 l42 7 0 -165
0 -165 -30 0 c-46 0 -92 -23 -128 -64 -38 -43 -46 -71 -40 -135 8 -86 80 -151
167 -151 76 0 130 35 162 105 17 36 19 70 19 361 0 310 -1 322 -21 348 -28 36
-54 34 -404 -25z"/>
<path d="M3061 3524 c-26 -34 -27 -64 -1 -92 26 -28 71 -35 187 -30 85 4 98 7
114 27 25 30 24 76 -1 101 -18 18 -33 20 -149 20 -128 0 -130 0 -150 -26z"/>
<path d="M3494 3529 c-17 -19 -19 -41 -22 -250 l-3 -229 -27 0 c-73 -1 -151
-69 -167 -147 -15 -73 41 -170 112 -194 53 -17 126 -7 166 24 66 50 67 56 67
439 0 321 -1 346 -18 361 -27 24 -85 22 -108 -4z"/>
<path d="M3730 3530 c-25 -25 -26 -71 -1 -101 16 -20 28 -24 86 -24 61 0 69 2
91 28 29 34 30 56 3 91 -19 24 -27 26 -90 26 -56 0 -73 -4 -89 -20z"/>
<path d="M1175 3125 c-53 -52 -13 -125 68 -125 59 0 97 29 97 75 0 46 -38 75
-97 75 -33 0 -50 -6 -68 -25z"/>
<path d="M1776 3129 c-19 -15 -26 -30 -26 -54 0 -24 7 -39 26 -54 24 -19 40
-21 156 -21 124 0 130 1 153 25 14 13 25 36 25 50 0 14 -11 37 -25 50 -23 24
-29 25 -153 25 -116 0 -132 -2 -156 -21z"/>
<path d="M3065 3125 c-14 -13 -25 -36 -25 -50 0 -14 11 -37 25 -50 21 -22 33
-25 90 -25 57 0 69 3 90 25 14 13 25 36 25 50 0 14 -11 37 -25 50 -21 22 -33
25 -90 25 -57 0 -69 -3 -90 -25z"/>
<path d="M3736 3129 c-36 -28 -36 -80 0 -108 20 -16 41 -21 84 -21 68 0 97 18
106 67 5 26 1 37 -19 57 -22 22 -35 26 -85 26 -45 0 -66 -5 -86 -21z"/>
<path d="M2750 2409 c-157 -26 -295 -53 -308 -58 -12 -6 -27 -22 -32 -37 -6
-14 -10 -121 -10 -238 l0 -213 -42 -7 c-143 -23 -205 -186 -109 -289 38 -42
74 -57 134 -57 60 0 104 23 141 73 20 27 21 44 26 335 l5 306 195 33 c107 17
210 35 228 38 l32 6 0 -166 0 -165 -27 0 c-37 -1 -103 -31 -130 -61 -72 -79
-50 -214 42 -266 81 -46 183 -22 235 54 l25 36 3 337 c3 329 2 337 -18 363
-29 36 -44 35 -390 -24z"/>
<path d="M3802 2337 c-21 -22 -22 -31 -22 -249 l0 -226 -44 -6 c-54 -8 -102
-40 -134 -86 -20 -30 -23 -44 -20 -97 6 -102 68 -163 165 -163 82 0 136 36
168 112 12 31 15 92 15 363 l0 326 -25 24 c-31 32 -74 33 -103 2z"/>
<path d="M1175 2035 c-14 -13 -25 -36 -25 -50 0 -14 11 -37 25 -50 l24 -25
431 0 431 0 24 25 c32 31 32 69 0 100 l-24 25 -431 0 -431 0 -24 -25z"/>
<path d="M3259 2041 c-17 -13 -23 -29 -23 -56 0 -27 6 -43 23 -56 21 -17 42
-19 191 -19 93 0 176 3 185 6 26 10 44 62 33 94 -15 43 -44 50 -222 50 -145 0
-166 -2 -187 -19z"/>
<path d="M1204 1650 c-26 -10 -54 -48 -54 -71 0 -9 9 -28 21 -43 l20 -26 438
0 438 0 21 23 c39 41 23 96 -32 117 -34 12 -821 13 -852 0z"/>
<path d="M3293 1654 c-26 -6 -63 -49 -63 -74 0 -10 9 -29 21 -44 20 -25 24
-26 119 -26 91 0 100 2 114 22 21 30 20 71 -2 98 -16 19 -30 23 -93 26 -41 1
-84 0 -96 -2z"/>
<path d="M1175 1225 c-14 -13 -25 -36 -25 -50 0 -14 11 -37 25 -50 22 -23 32
-25 108 -25 70 0 89 3 111 21 34 27 36 77 3 107 -20 19 -35 22 -111 22 -79 0
-89 -2 -111 -25z"/>
<path d="M1544 1236 c-18 -13 -19 -31 -24 -251 l-5 -237 -37 -4 c-74 -6 -138
-61 -158 -134 -32 -119 91 -242 210 -210 46 13 94 50 118 94 15 27 17 71 20
340 2 170 1 325 -3 343 -12 64 -73 94 -121 59z"/>
<path d="M1772 1227 c-31 -33 -29 -80 4 -106 24 -19 40 -21 156 -21 124 0 130
1 153 25 14 13 25 36 25 50 0 14 -11 37 -25 50 -23 24 -29 25 -158 25 -127 0
-135 -1 -155 -23z"/>
<path d="M2543 1196 c-226 -38 -307 -56 -320 -69 -16 -16 -18 -44 -21 -252
l-3 -235 -36 0 c-51 0 -101 -27 -130 -71 -78 -118 2 -274 141 -273 62 0 106
22 143 71 l28 36 3 304 3 303 22 4 c12 3 108 19 212 36 105 17 198 33 208 36
16 5 17 -7 17 -159 l0 -165 -44 -6 c-85 -13 -146 -74 -154 -154 -6 -65 11
-114 53 -151 83 -72 202 -56 265 36 l25 36 3 339 3 338 -25 25 c-17 17 -35 25
-58 24 -18 -1 -169 -24 -335 -53z"/>
<path d="M3065 1225 c-14 -13 -25 -36 -25 -50 0 -14 11 -37 25 -50 23 -24 30
-25 143 -25 106 0 122 2 146 21 34 27 36 77 3 107 -21 20 -34 22 -146 22 -116
0 -123 -1 -146 -25z"/>
<path d="M3508 1239 c-30 -17 -38 -78 -38 -292 0 -133 -4 -206 -10 -202 -19
12 -92 -17 -129 -51 -77 -69 -77 -179 0 -248 70 -64 160 -68 229 -10 60 51 60
50 60 429 0 332 -1 346 -20 365 -21 21 -64 26 -92 9z"/>
<path d="M3732 1227 c-31 -33 -29 -80 4 -106 20 -16 41 -21 84 -21 68 0 97 18
106 67 5 26 1 37 -19 57 -23 23 -35 26 -90 26 -53 0 -67 -4 -85 -23z"/>
<path d="M1194 839 c-22 -11 -44 -48 -44 -73 0 -7 9 -25 21 -40 18 -22 28 -26
74 -26 43 0 59 5 75 22 25 27 26 69 2 98 -21 25 -94 36 -128 19z"/>
<path d="M1793 840 c-44 -18 -57 -86 -23 -120 18 -18 33 -20 159 -20 139 0
140 0 160 26 34 43 26 86 -20 109 -32 17 -238 20 -276 5z"/>
<path d="M3085 839 c-49 -28 -58 -70 -24 -113 19 -24 27 -26 93 -26 63 0 75 3
94 23 27 29 28 67 3 98 -15 19 -30 23 -82 26 -36 2 -73 -1 -84 -8z"/>
<path d="M3753 840 c-44 -18 -57 -86 -23 -120 16 -16 33 -20 89 -20 63 0 71 2
90 26 12 15 21 33 21 40 0 26 -23 62 -47 73 -28 13 -99 13 -130 1z"/>
</g>
</svg>
